<svg xmlns="http://www.w3.org/2000/svg" version="1.0" width="320.000000pt" height="320.000000pt" viewBox="0 0 320.000000 320.000000" preserveAspectRatio="xMidYMid meet">

<g transform="translate(0.000000,320.000000) scale(0.100000,-0.100000)" fill="#ffffff">
<path d="M1514 2845 c-51 -16 -122 -55 -379 -210 -66 -40 -265 -158 -441 -263 -199 -118 -333 -205 -352 -227 -82 -93 -54 -228 63 -302 24 -15 44 -31 45 -34 0 -3 -17 -15 -38 -26 -74 -42 -122 -116 -122 -185 1 -67 55 -144 139 -199 l24 -15 -35 -22 c-90 -56 -137 -143 -119 -222 15 -67 53 -113 133 -162 80 -49 235 -141 284 -168 17 -10 64 -38 105 -62 41 -25 164 -98 274 -163 110 -65 232 -137 270 -160 147 -87 243 -102 371 -59 27 9 216 115 419 237 729 435 705 419 736 477 23 41 25 126 6 173 -14 31 -67 86 -116 118 l-25 16 47 32 c25 17 59 48 74 68 25 32 28 45 28 108 0 61 -4 77 -27 112 -15 22 -47 53 -72 69 -25 16 -45 32 -46 36 0 3 19 17 43 31 49 29 66 48 90 99 34 72 13 173 -49 229 -25 23 -121 82 -254 157 -49 27 -354 206 -540 317 -234 140 -240 144 -309 177 -73 36 -159 44 -227 23z m193 -148 c26 -13 118 -66 203 -117 85 -51 175 -104 200 -118 25 -13 52 -31 61 -38 8 -8 18 -14 22 -14 3 0 116 -65 250 -144 134 -79 254 -150 268 -157 51 -29 69 -52 69 -88 0 -32 -31 -81 -51 -81 -4 0 -47 -24 -96 -54 -48 -29 -155 -93 -238 -141 -82 -49 -215 -127 -295 -175 -414 -247 -409 -244 -476 -248 -70 -5 -108 9 -238 87 -45 26 -137 81 -206 121 -69 40 -224 131 -345 203 -121 72 -229 135 -240 141 -11 7 -50 29 -87 50 -116 68 -117 130 -2 192 41 22 356 208 507 300 49 30 91 54 94 54 2 0 24 14 48 30 24 17 46 30 49 30 3 0 29 15 58 33 95 60 237 139 275 153 51 19 112 12 170 -19z m-1092 -981 c11 -7 40 -24 65 -38 25 -14 95 -54 155 -90 209 -124 560 -331 594 -350 98 -55 231 -59 331 -9 51 25 424 242 513 298 21 13 53 32 70 42 18 10 88 51 156 91 l123 74 65 -34 c73 -39 93 -61 93 -105 -1 -39 -13 -53 -85 -96 -133 -80 -642 -383 -670 -399 -16 -9 -97 -57 -178 -105 -144 -85 -151 -88 -221 -93 -86 -5 -111 4 -274 101 -59 35 -163 96 -232 137 -69 40 -145 85 -170 100 -25 15 -112 67 -195 115 -348 204 -335 195 -335 240 0 37 18 56 98 102 65 37 70 38 97 19z m50 -452 c44 -26 94 -54 110 -64 17 -9 113 -67 215 -127 239 -142 417 -246 455 -266 98 -52 233 -50 339 5 12 6 152 88 311 183 160 95 344 204 410 243 l120 71 70 -39 c116 -63 123 -116 25 -182 -45 -30 -455 -275 -565 -338 -16 -9 -118 -70 -225 -134 -313 -187 -326 -188 -595 -28 -104 62 -243 143 -310 182 -16 9 -113 67 -215 127 -102 61 -217 129 -257 151 -171 99 -176 135 -32 227 30 19 56 35 59 35 3 0 41 -21 85 -46z" fill="#ffffff"/>
</g>
</svg>